font10420.sfdir
StartChar: .notdef
Encoding: 0 0 0
Width: 1000
Flags: W
LayerCount: 2
Back
Fore
SplineSet
0 0 m 1
 977 0 l 1
 977 1000 l 1
 0 1000 l 1
 0 0 l 1
EndSplineSet
Validated: 9
EndChar
StartChar: glyph 1
Encoding: 1 65 1
Width: 379
Flags: W
HStem: 281 66<-38.7195 143.812>
LayerCount: 2
Back
Fore
SplineSet
3 898 m 2
 -37 835 l 2
 -35 832 -33 827 -31 824 c 0
 -26 818 -22 811 -17 805 c 0
 -11 796 -4 786 2 777 c 0
 8 768 14 758 20 749 c 1
 4 721 l 1
 7 717 10 712 13 708 c 0
 22 695 29 681 36 667 c 0
 50 641 61 613 72 586 c 0
 87 550 100 514 112 477 c 0
 124 438 135 399 144 359 c 1
 140 358 135 357 131 356 c 0
 97 350 62 345 27 347 c 0
 10 349 -7 351 -23 358 c 0
 -28 361 -33 364 -39 367 c 1
 -68 296 l 1
 -63 295 -58 293 -53 291 c 0
 -35 284 -18 282 1 281 c 0
 38 280 74 286 110 293 c 0
 125 296 141 300 156 303 c 1
 159 285 162 267 165 249 c 0
 169 225 173 201 177 177 c 1
 219 234 l 1
 214 257 210 282 206 305 c 0
 206 308 204 310 204 313 c 0
 219 316 234 319 249 321 c 0
 284 327 320 328 355 325 c 1
 362 318 368 310 374 303 c 0
 381 295 388 287 395 279 c 0
 402 271 408 264 415 256 c 0
 422 249 429 241 436 234 c 0
 443 227 450 219 457 212 c 0
 464 205 471 198 478 191 c 0
 484 185 490 179 496 173 c 0
 502 167 508 162 514 156 c 0
 520 151 524 146 530 141 c 0
 533 138 538 134 541 131 c 1
 576 197 l 1
 573 200 569 203 566 206 c 0
 561 211 555 217 549 222 c 0
 543 227 538 233 532 238 c 0
 526 244 520 250 514 256 c 0
 507 263 500 270 493 277 c 0
 486 284 479 291 472 298 c 0
 465 305 459 312 452 320 c 0
 451 322 449 323 448 325 c 2
 469 377 l 1
 459 379 l 2
 437 383 414 387 391 389 c 0
 390 390 389 392 388 393 c 0
 380 402 372 411 364 420 c 0
 356 430 347 440 339 450 c 0
 330 461 321 471 312 482 c 0
 302 494 291 505 281 517 c 0
 270 529 260 541 249 553 c 0
 238 565 228 577 218 590 c 0
 208 602 199 615 189 627 c 0
 180 639 170 651 161 663 c 0
 152 674 143 685 135 697 c 0
 127 709 119 720 111 732 c 0
 103 744 95 757 87 769 c 0
 79 781 70 793 62 805 c 0
 54 817 47 828 40 840 c 0
 34 850 27 859 21 868 c 0
 17 875 13 881 9 888 c 0
 7 891 4 894 3 898 c 2
129 593 m 1
 136 584 145 573 152 564 c 0
 162 552 171 540 181 528 c 0
 191 515 202 502 213 490 c 0
 224 478 234 466 245 454 c 0
 255 442 265 431 275 419 c 0
 283 409 292 399 300 389 c 1
 290 388 279 386 269 384 c 0
 244 380 218 374 193 369 c 1
 190 384 187 399 183 414 c 0
 173 454 163 494 150 533 c 0
 143 553 136 573 129 593 c 1
EndSplineSet
Validated: 553
EndChar
StartChar: glyph 2
Encoding: 2 66 2
Width: 433
Flags: W
HStem: 320 69<271 378> 860 21G<-70 -70 -21 -18>
VStem: 515 48<242.148 245.953 246.61 356.756>
LayerCount: 2
Back
Fore
SplineSet
-70 861 m 2
 -71 861 -70 860 -70 860 c 2
 -70 861 l 2
-70 860 m 2
 -114 799 l 1
 -111 795 -107 792 -103 788 c 0
 -92 776 -81 765 -69 754 c 0
 -64 750 -59 745 -54 741 c 1
 -56 737 l 1
 -53 732 -49 727 -46 722 c 0
 -30 700 -16 677 -2 654 c 0
 26 607 54 560 82 513 c 0
 88 504 94 494 99 485 c 1
 76 481 53 476 31 469 c 0
 16 465 2 460 -12 454 c 0
 -16 452 -21 450 -25 448 c 2
 -42 374 l 2
 -39 377 -35 380 -31 382 c 0
 -18 390 -3 395 11 400 c 0
 34 408 57 415 81 420 c 1
 80 416 l 1
 89 418 l 2
 101 421 112 425 124 428 c 0
 126 428 129 429 131 429 c 0
 144 406 157 384 170 361 c 0
 173 357 175 352 178 348 c 1
 144 340 110 330 77 318 c 0
 61 312 44 305 29 296 c 0
 26 294 9 283 7 279 c 0
 -6 256 -18 233 -30 209 c 0
 -31 205 -32 202 -33 198 c 0
 -36 178 -26 160 -14 146 c 0
 -11 143 -7 139 -4 136 c 0
 17 117 43 106 69 96 c 0
 87 90 90 88 108 83 c 0
 138 75 168 69 199 66 c 0
 247 62 295 61 342 72 c 0
 349 74 356 75 363 77 c 0
 396 87 427 103 454 124 c 0
 466 134 471 137 482 148 c 0
 514 180 532 219 550 262 c 0
 552 267 553 271 555 276 c 0
 563 298 566 321 563 344 c 0
 562 348 561 353 560 357 c 0
 555 378 544 397 531 414 c 0
 523 423 522 426 513 434 c 0
 498 447 482 458 464 466 c 0
 450 472 448 473 433 478 c 0
 409 486 385 491 360 494 c 0
 343 496 326 498 308 499 c 1
 316 516 324 532 331 549 c 0
 332 551 330 554 329 556 c 0
 326 566 318 572 311 579 c 0
 291 595 270 609 248 623 c 0
 216 643 184 662 152 682 c 0
 115 705 79 727 44 752 c 0
 24 766 4 782 -15 798 c 0
 -16 799 -17 801 -18 802 c 2
 -18 801 l 1
 -24 806 -30 811 -35 816 c 0
 -46 827 -57 839 -66 852 c 0
 -67 853 -70 858 -70 860 c 2
64 659 m 1
 83 647 102 634 122 622 c 0
 154 602 186 582 217 561 c 0
 233 550 249 539 264 527 c 1
 263 527 l 0
 235 518 206 510 178 503 c 0
 171 501 163 500 156 498 c 1
 142 521 129 544 116 567 c 0
 98 597 81 628 64 659 c 1
287 501 m 1
 287 500 l 1
 286 500 l 1
 287 501 l 1
243 437 m 0
 274 437 305 435 336 431 c 0
 365 427 394 421 421 410 c 0
 426 408 429 405 434 403 c 0
 450 395 466 385 479 372 c 0
 487 364 489 362 496 353 c 0
 508 337 516 319 519 299 c 0
 520 295 521 291 521 287 c 0
 522 273 520 259 516 246 c 0
 515 245 515 244 515 243 c 0
 501 222 486 207 468 190 c 0
 442 169 414 153 382 142 c 0
 375 140 368 138 361 136 c 0
 315 124 270 124 223 128 c 0
 186 132 150 139 115 151 c 0
 109 153 102 156 96 158 c 0
 72 168 48 179 29 198 c 0
 26 201 24 204 21 207 c 0
 17 213 13 220 11 226 c 0
 12 227 13 227 14 228 c 0
 28 239 43 246 59 253 c 0
 98 269 139 279 180 289 c 0
 189 291 199 293 208 295 c 1
 218 277 228 260 238 242 c 0
 248 223 259 204 269 185 c 1
 307 244 l 1
 296 262 285 281 274 299 c 0
 272 302 272 304 270 307 c 1
 275 308 278 308 283 309 c 0
 306 313 330 316 353 318 c 0
 361 319 370 320 378 320 c 1
 402 389 l 1
 393 388 385 387 376 386 c 0
 352 383 328 381 305 376 c 0
 282 372 260 367 237 362 c 1
 226 380 216 398 205 416 c 0
 201 422 197 429 193 435 c 1
 199 435 205 436 211 436 c 0
 221 437 233 437 243 437 c 0
19 261 m 1
 16 255 13 249 10 243 c 1
 11 246 11 250 13 253 c 0
 14 256 17 258 19 261 c 1
511 230 m 1
 510 228 510 226 509 224 c 0
 507 220 504 215 502 211 c 1
 505 217 508 224 511 230 c 1
EndSplineSet
Validated: 549
EndChar
StartChar: glyph 3
Encoding: 3 67 3
Width: 295
Flags: W
HStem: 619 69<-41.6914 60.927>
VStem: 110 27<741.952 753.928> 239 47<210 287.211>
LayerCount: 2
Back
Fore
SplineSet
137 824 m 0
 134 824 132 823 129 822 c 0
 126 820 121 817 119 813 c 0
 88 746 90 769 88 740 c 0
 88 726 93 712 97 698 c 0
 104 679 112 660 120 642 c 1
 116 645 114 647 110 650 c 0
 93 662 74 672 55 680 c 0
 40 686 24 689 7 688 c 0
 -7 687 -19 683 -31 676 c 0
 -62 654 -72 612 -87 580 c 0
 -93 563 -96 546 -97 528 c 0
 -98 508 -97 488 -94 469 c 0
 -91 449 -85 429 -79 410 c 0
 -72 390 -63 371 -54 352 c 0
 -44 333 -32 315 -19 298 c 0
 -6 281 10 266 25 251 c 0
 40 236 56 223 72 210 c 0
 87 198 103 186 119 176 c 0
 133 167 148 160 163 153 c 0
 175 148 187 144 200 141 c 0
 211 139 221 140 231 144 c 0
 237 147 244 152 247 159 c 0
 279 226 272 204 280 234 c 0
 283 246 285 258 286 271 c 0
 287 282 286 293 285 304 c 0
 284 313 282 321 280 330 c 0
 279 335 278 340 277 345 c 2
 234 284 l 2
 235 279 236 274 237 269 c 0
 239 261 239 253 240 245 c 0
 241 235 240 224 239 214 c 0
 239 213 239 211 239 210 c 0
 235 209 231 210 227 210 c 0
 215 212 204 215 193 219 c 0
 178 225 164 233 151 241 c 0
 135 251 120 261 106 273 c 0
 90 286 74 300 59 314 c 0
 44 329 30 343 17 360 c 0
 5 376 -6 393 -15 412 c 0
 -24 430 -32 450 -38 469 c 0
 -44 488 -49 507 -51 527 c 0
 -53 546 -54 565 -51 584 c 0
 -50 591 -48 597 -47 604 c 0
 -38 612 -29 617 -17 619 c 0
 -3 621 12 619 26 614 c 0
 44 607 61 598 77 587 c 0
 96 573 113 559 130 543 c 0
 147 528 163 512 178 495 c 0
 190 481 201 467 211 451 c 0
 217 442 221 432 225 422 c 0
 226 419 229 415 228 411 c 2
 272 472 l 1
 270 476 268 480 266 484 c 0
 265 486 265 487 264 489 c 2
 269 497 l 1
 261 510 253 524 245 538 c 0
 232 561 220 583 207 606 c 0
 192 633 178 659 165 687 c 0
 155 710 145 733 138 757 c 0
 135 770 133 783 137 796 c 0
 148 821 132 786 110 739 c 0
 110 738 111 741 111 742 c 0
 112 744 112 746 113 748 c 0
 113 749 115 752 114 753 c 2
 142 823 l 2
 140 824 139 824 137 824 c 0
-59 587 m 1
 -61 584 -62 580 -64 577 c 0
 -65 575 -62 582 -61 584 c 0
 -60 585 -60 586 -59 587 c 1
256 232 m 0
 256 232 256 228 255 227 c 0
 254 223 252 219 249 216 c 0
 251 221 253 226 256 232 c 0
EndSplineSet
Validated: 549
EndChar
StartChar: glyph 4
Encoding: 4 68 4
Width: 333
Flags: W
HStem: 807 21G<5.5 9>
LayerCount: 2
Back
Fore
SplineSet
-102 901 m 2
 -143 838 l 2
 -141 835 -139 831 -136 828 c 0
 -131 822 -126 817 -120 812 c 0
 -111 804 -100 796 -90 789 c 0
 -75 778 -59 767 -44 757 c 0
 -38 753 -33 750 -27 746 c 1
 -29 743 l 1
 -26 740 -23 736 -21 733 c 0
 -15 725 -9 715 -4 706 c 0
 5 690 12 675 21 659 c 0
 32 639 44 620 55 600 c 0
 67 579 79 558 91 537 c 0
 103 516 116 496 128 475 c 0
 134 465 139 456 145 446 c 1
 144 446 143 445 142 445 c 0
 131 442 119 438 109 432 c 0
 107 431 104 429 103 427 c 0
 91 404 82 381 71 358 c 0
 71 356 71 353 71 351 c 0
 72 336 81 322 90 311 c 0
 109 290 132 273 157 258 c 0
 189 239 222 222 257 209 c 0
 266 206 275 203 284 200 c 1
 288 193 291 187 295 180 c 0
 299 172 304 163 308 155 c 0
 310 151 309 153 311 149 c 1
 334 186 l 1
 345 184 356 182 367 181 c 0
 399 178 431 178 462 189 c 0
 486 198 508 210 524 231 c 1
 540 265 564 297 561 336 c 0
 560 347 560 350 557 360 c 0
 556 364 555 368 553 372 c 0
 543 396 527 418 510 438 c 0
 484 467 456 494 425 519 c 0
 391 546 354 572 318 597 c 0
 283 621 247 646 211 669 c 0
 181 689 151 709 122 730 c 0
 98 747 73 763 48 780 c 0
 35 789 23 797 10 806 c 0
 10 807 9 807 9 808 c 2
 9 807 l 1
 2 812 -4 816 -11 821 c 0
 -26 832 -41 843 -56 854 c 0
 -66 861 -75 868 -84 877 c 0
 -89 882 -94 887 -98 893 c 0
 -100 896 -101 898 -102 901 c 2
88 669 m 1
 89 668 89 669 90 668 c 0
 120 648 151 627 181 608 c 0
 217 585 253 562 288 538 c 0
 324 513 359 487 393 459 c 0
 423 435 451 408 476 378 c 0
 491 358 506 338 514 314 c 0
 515 310 516 306 517 302 c 0
 518 295 518 288 518 281 c 1
 508 271 496 264 481 257 c 0
 452 245 422 243 391 245 c 0
 369 247 348 252 326 258 c 1
 323 264 319 269 316 275 c 0
 308 289 301 303 293 317 c 0
 284 333 275 350 266 366 c 0
 260 376 254 388 248 398 c 1
 255 399 261 399 268 400 c 2
 272 400 l 1
 296 471 l 1
 291 470 l 2
 279 468 268 467 256 465 c 0
 241 463 227 461 212 459 c 1
 209 465 204 470 201 476 c 0
 189 496 178 515 166 535 c 0
 154 556 141 576 129 597 c 0
 117 618 105 640 93 661 c 0
 91 664 90 666 88 669 c 1
119 413 m 1
 117 409 116 406 115 403 c 1
 115 405 115 406 116 408 c 0
 117 410 118 411 119 413 c 1
180 389 m 1
 186 379 191 369 197 359 c 0
 207 341 218 323 228 305 c 0
 230 301 232 298 234 294 c 1
 218 302 202 311 187 320 c 0
 163 335 142 351 125 373 c 0
 124 374 125 375 124 376 c 1
 142 382 161 386 180 389 c 1
96 359 m 1
 72 305 84 343 96 359 c 1
514 258 m 1
 513 255 509 246 510 249 c 0
 511 252 513 255 514 258 c 1
EndSplineSet
Validated: 553
EndChar
StartChar: glyph 5
Encoding: 5 69 5
Width: 394
Flags: W
HStem: 834 20G<166 168> 851 21G<167 170.5>
VStem: 36 21<686.957 697.241> 427 44<268.174 387 393 438.771>
LayerCount: 2
Back
Fore
SplineSet
189 925 m 0x30
 188 925 186 925 185 925 c 0
 150 858 144 878 159 839 c 0
 167 819 176 798 185 778 c 0
 196 754 207 731 219 708 c 1
 197 725 174 739 149 751 c 0
 131 760 113 767 93 768 c 0
 87 768 84 768 79 766 c 0
 77 765 69 762 68 760 c 0
 35 694 35 716 36 684 c 0
 38 664 46 646 55 628 c 0
 66 607 81 589 96 571 c 1
 83 573 71 576 58 577 c 0
 41 578 24 577 9 570 c 0
 6 569 4 567 1 566 c 0
 -26 546 -44 511 -45 477 c 0
 -45 469 -45 466 -44 458 c 0
 -38 433 -25 411 -10 390 c 0
 12 360 41 336 71 313 c 0
 108 286 149 264 190 242 c 0
 227 223 264 206 303 192 c 0
 326 185 352 177 376 181 c 0
 380 182 383 184 387 185 c 0
 402 191 416 203 424 218 c 0
 457 285 451 267 462 304 c 0
 469 331 471 359 471 387 c 0
 471 408 469 430 466 451 c 0
 464 465 463 478 460 491 c 0
 458 497 459 494 457 500 c 1
 415 439 l 2
 416 434 416 436 417 431 c 0
 420 418 421 406 423 393 c 0
 425 373 427 352 427 331 c 0
 426 308 425 285 419 263 c 0
 416 259 411 256 407 253 c 0
 404 252 401 250 398 249 c 0
 376 242 352 249 331 255 c 0
 292 268 255 283 219 302 c 0
 179 323 139 345 103 373 c 0
 75 396 46 420 26 450 c 0
 15 468 5 486 1 506 c 1
 11 509 23 510 33 510 c 0
 59 508 83 504 108 497 c 0
 135 489 162 481 187 469 c 0
 197 464 207 459 217 454 c 0
 218 453 220 451 221 450 c 0
 234 440 247 430 260 420 c 0
 268 414 276 408 284 402 c 0
 311 384 308 419 328 464 c 0
 329 466 324 467 323 468 c 0
 322 469 321 470 320 471 c 0
 308 481 295 489 282 498 c 0
 273 504 263 510 254 515 c 0
 236 529 219 543 202 558 c 0
 181 577 160 597 141 619 c 0
 123 640 106 662 94 688 c 0
 93 691 91 694 90 697 c 1
 100 695 110 691 119 687 c 0
 145 675 169 661 192 643 c 0
 219 622 244 599 267 574 c 0
 288 552 307 530 326 506 c 0
 335 495 345 483 354 471 c 0
 355 470 356 468 357 467 c 0
 358 465 359 463 360 461 c 2
 361 462 l 2
 361 461 l 2
 393 514 l 1
 399 523 l 2
 398 523 l 2
 400 526 l 1
 397 529 394 532 391 535 c 0
 390 536 390 537 389 538 c 0
 382 550 375 561 368 573 c 0
 353 597 338 622 323 646 c 0
 304 677 286 708 269 740 c 0
 253 772 236 804 223 837 c 0
 215 856 209 874 203 894 c 1
 212 913 l 2
 210 914 210 916 208 917 c 0
 206 919 203 921 200 923 c 0
 196 925 193 925 189 925 c 0x30
203 915 m 0
 203 914 l 0
 202 912 201 909 200 907 c 1
 200 908 200 911 200 912 c 0
 200 913 203 915 203 915 c 0
167 854 m 0xb0
 169 853 170 852 171 851 c 0x70
 171 851 165 854 167 854 c 0xb0
62 698 m 1
 60 695 59 691 57 687 c 0
 56 686 57 691 57 692 c 0
 58 695 60 697 62 698 c 1
-19 491 m 1
 -20 489 -22 485 -23 483 c 0
 -24 481 -21 488 -20 490 c 0
 -19 491 l 1
318 469 m 0
 320 468 l 0
 320 468 319 467 318 468 c 1
 318 469 l 0
283 406 m 1
 283 405 284 405 284 404 c 0
 284 403 282 403 282 404 c 0
 282 405 283 405 283 406 c 1
434 289 m 0
 434 289 431 282 429 278 c 1
 431 281 432 284 434 288 c 0
 434 289 l 0
EndSplineSet
Validated: 549
EndChar
StartChar: glyph 6
Encoding: 6 70 6
Width: 352
Flags: W
HStem: 391 7<25 26> 437 66<239.281 312.935> 438 67<239 309.156> 649 66<-33.244 43.875> 703 61<225.777 491.828>
VStem: -85 31<741.833 761.674> -39 1<750.234 768>
LayerCount: 2
Back
Fore
SplineSet
-54 785 m 1x96
 -84 772 -90 734 -85 706 c 0
 -83 695 -79 686 -73 676 c 0
 -65 664 -53 655 -39 651 c 0
 -35 650 -31 650 -27 649 c 0
 -3 646 21 649 45 653 c 1
 51 642 58 631 64 620 c 0
 81 591 98 563 115 534 c 0
 122 523 129 511 136 500 c 1
 123 499 111 496 99 494 c 0
 79 490 59 486 41 477 c 0
 14 462 -13 416 13 395 c 0
 16 393 20 392 23 391 c 2
 26 398 l 2
 25 398 25 400 27 404 c 0
 28 405 28 405 29 406 c 2
 51 461 l 2
 50 461 48 461 48 462 c 0
 48 463 48 463 49 463 c 0
 68 468 51 434 37 413 c 1
 49 421 65 423 78 427 c 0
 109 434 140 437 171 439 c 1
 174 434 177 429 180 424 c 0
 200 389 219 353 238 317 c 0
 253 288 267 260 282 231 c 0
 292 211 302 190 312 170 c 2
 316 163 l 1
 355 224 l 1
 351 231 l 2
 341 251 329 270 319 290 c 0
 304 318 289 346 274 374 c 0
 262 395 251 417 239 438 c 1xb6
 245 438 250 438 256 437 c 0
 274 435 292 433 310 431 c 1
 336 499 l 1
 318 501 300 501 282 503 c 0xc6
 255 505 229 506 202 505 c 1
 185 534 168 563 151 592 c 0
 137 616 123 640 110 665 c 1
 155 673 201 681 246 688 c 0
 303 697 360 701 418 703 c 0
 443 704 468 703 493 701 c 1
 490 699 486 696 483 694 c 0
 472 687 461 679 450 671 c 1
 435 601 l 1
 445 610 456 619 467 627 c 0
 492 644 517 660 545 672 c 0
 563 679 581 685 600 687 c 0
 605 687 610 687 615 686 c 1
 645 756 l 1
 638 758 631 757 624 757 c 0
 619 756 614 755 609 754 c 0
 594 756 579 759 564 761 c 0
 523 765 481 766 440 764 c 0xae
 382 761 323 756 265 748 c 0
 209 740 154 731 99 722 c 0
 93 721 88 720 82 719 c 0
 81 722 79 726 78 729 c 0
 77 732 74 737 76 741 c 2
 56 716 l 1
 37 714 19 713 0 715 c 0
 -16 719 -26 723 -34 738 c 0
 -36 742 -37 746 -38 750 c 1
 -45 727 -58 699 -66 711 c 1
 -54 785 l 1x96
-38 750 m 1
 -32 768 -30 783 -37 773 c 0
 -38 771 -39 768 -39 765 c 0
 -39 760 -39 755 -38 750 c 1
37 413 m 1
 34 411 32 408 29 406 c 2
 26 398 l 2
 28 398 32 405 37 413 c 1
EndSplineSet
Validated: 549
EndChar
StartChar: glyph 7
Encoding: 7 71 7
Width: 421
Flags: W
HStem: 344 67<394 528.953>
VStem: 5 45<547.742 695>
LayerCount: 2
Back
Fore
SplineSet
186 937 m 1
 143 875 l 1
 147 868 152 861 156 854 c 0
 170 830 184 807 198 783 c 0
 211 762 223 741 236 720 c 1
 230 724 225 728 219 732 c 0
 196 747 171 758 146 767 c 0
 130 772 113 778 96 776 c 0
 93 776 91 774 88 774 c 0
 70 769 57 759 47 744 c 0
 19 699 8 668 5 621 c 0
 4 596 6 572 12 547 c 0
 19 519 31 492 44 467 c 0
 60 438 80 410 100 384 c 0
 122 356 147 330 173 305 c 0
 198 281 225 259 252 239 c 0
 273 223 295 210 318 196 c 0
 334 186 351 177 367 168 c 0
 375 164 383 159 391 155 c 1
 406 186 l 1
 430 220 l 2
 430 223 429 224 429 227 c 0
 428 236 426 244 424 253 c 0
 420 272 413 291 407 309 c 0
 403 321 399 332 394 344 c 1
 395 344 l 0
 415 345 436 346 456 347 c 0
 470 348 484 348 498 349 c 0
 507 350 517 350 526 351 c 0
 527 351 528 352 529 352 c 2
 554 422 l 1
 550 422 l 2
 541 421 531 420 522 419 c 0
 508 418 494 416 480 415 c 0
 459 413 439 412 418 411 c 0
 392 410 367 409 341 411 c 0
 318 413 294 416 271 423 c 0
 259 427 247 431 237 438 c 0
 234 440 231 443 230 446 c 2
 191 381 l 1
 195 378 199 375 203 372 c 0
 215 365 229 361 243 357 c 0
 267 351 291 347 315 345 c 0
 319 345 324 344 328 344 c 0
 334 331 340 320 345 307 c 0
 353 289 360 270 366 251 c 1
 360 254 356 257 350 260 c 0
 327 273 305 286 284 301 c 0
 257 321 230 342 206 365 c 0
 181 390 157 416 135 444 c 0
 115 470 97 496 82 525 c 0
 70 550 58 577 53 604 c 0
 49 628 47 653 50 677 c 0
 51 683 52 689 53 695 c 0
 57 699 61 703 66 705 c 0
 68 706 71 706 73 707 c 0
 88 711 103 706 117 702 c 0
 142 694 165 683 187 669 c 0
 213 652 240 634 263 613 c 0
 286 592 308 570 328 546 c 0
 341 531 354 515 367 500 c 0
 372 495 377 489 383 486 c 1
 386 482 388 477 391 473 c 1
 429 535 l 1
 420 548 411 560 403 573 c 0
 388 595 373 618 358 641 c 0
 338 672 317 702 298 733 c 0
 276 768 255 805 234 841 c 0
 220 866 207 890 195 915 c 0
 192 922 187 929 186 937 c 1
41 680 m 1
 32 661 30 653 37 672 c 0
 38 675 40 677 41 680 c 1
EndSplineSet
Validated: 549
EndChar
StartChar: glyph 8
Encoding: 8 72 8
Width: 315
Flags: W
HStem: 457 63<-115.385 26.875>
LayerCount: 2
Back
Fore
SplineSet
179 906 m 2
 135 845 l 1
 138 840 140 834 142 828 c 0
 148 812 154 796 160 780 c 0
 170 753 180 725 190 698 c 0
 203 662 218 626 233 590 c 0
 248 555 265 521 282 487 c 1
 269 490 255 493 242 495 c 0
 204 502 166 508 128 512 c 0
 117 513 107 514 96 515 c 1
 82 539 69 562 55 586 c 0
 31 628 6 671 -16 714 c 0
 -29 739 -41 764 -54 788 c 0
 -57 794 -60 799 -64 805 c 1
 -103 740 l 1
 -99 735 -96 730 -93 725 c 0
 -78 703 -65 679 -52 656 c 0
 -28 614 -4 573 20 531 c 0
 22 527 25 524 27 520 c 1
 14 520 1 520 -12 520 c 0
 -45 519 -79 518 -112 513 c 0
 -148 506 -188 494 -172 433 c 0
 -169 426 -165 420 -159 415 c 0
 -155 411 -151 407 -146 404 c 1
 -126 446 l 1
 -96 453 -66 455 -35 457 c 0
 -2 458 31 457 64 454 c 1
 73 437 83 420 92 403 c 0
 110 370 127 337 144 304 c 0
 154 284 164 264 174 244 c 1
 212 303 l 1
 202 323 192 343 181 363 c 0
 166 391 150 418 135 446 c 1
 162 442 189 437 216 431 c 0
 242 426 267 420 293 414 c 0
 306 411 300 413 313 410 c 1
 317 419 l 1
 330 393 342 367 355 341 c 0
 371 307 387 272 402 237 c 0
 413 213 424 189 435 165 c 1
 474 225 l 1
 463 249 451 271 440 295 c 0
 424 329 408 363 391 397 c 0
 370 439 350 480 329 522 c 0
 308 563 288 604 270 646 c 0
 255 682 241 719 228 756 c 0
 218 784 209 811 200 839 c 0
 194 856 188 872 183 889 c 0
 182 893 178 902 179 906 c 2
-117 497 m 0
 -116 497 -119 493 -125 483 c 1
 -127 486 -129 489 -127 493 c 0
 -121 496 -118 497 -117 497 c 0
-150 436 m 1
 -151 435 -151 433 -152 432 c 0
 -152 431 -152 434 -151 435 c 0
 -150 436 l 1
EndSplineSet
Validated: 549
EndChar
StartChar: glyph 9
Encoding: 9 73 9
Width: 279
Flags: W
HStem: 228 64<83.9021 218 298 418.5> 646 65<153.173 258.953>
VStem: 58 11<204 213.351>
LayerCount: 2
Back
Fore
SplineSet
-33 761 m 2
 -43 761 -48 736 -54 715 c 1
 -71 694 -75 699 -62 691 c 0
 -62 691 -61 690 -59 689 c 0
 -57 688 -55 687 -53 686 c 0
 -52 685 -50 684 -49 682 c 2
 -48 684 l 1
 -34 678 -18 674 -3 670 c 0
 27 663 57 659 87 656 c 1
 95 638 104 619 112 601 c 0
 131 559 149 517 167 475 c 0
 185 433 204 391 222 349 c 0
 230 330 238 311 246 292 c 1
 237 292 227 292 218 292 c 0
 183 292 147 290 112 287 c 0
 98 285 85 284 71 280 c 0
 40 274 17 210 51 204 c 0
 53 204 55 204 57 204 c 1
 57 205 57 205 56 206 c 0
 56 207 57 207 57 208 c 0
 58 209 59 210 60 211 c 2
 80 273 l 2
 82 273 84 272 84 271 c 0
 76 245 71 227 69 215 c 1
 77 217 85 218 90 219 c 0
 125 225 160 227 195 228 c 0
 239 230 282 227 326 223 c 0
 359 220 391 214 423 205 c 0
 443 199 461 192 480 184 c 0
 489 180 485 182 494 178 c 1
 524 244 l 1
 515 248 520 246 510 250 c 0
 490 257 470 264 450 269 c 0
 417 277 384 283 350 286 c 0
 333 287 316 289 298 290 c 1
 305 301 l 1
 300 313 l 2
 286 344 273 374 259 405 c 0
 240 447 221 488 203 530 c 0
 186 570 168 611 152 651 c 1
 177 649 203 648 228 646 c 0
 248 645 238 645 257 644 c 1
 282 710 l 1
 263 710 272 711 252 711 c 0
 213 712 175 713 136 716 c 0
 133 716 129 717 126 717 c 0
 124 722 123 728 121 733 c 0
 121 734 117 743 117 747 c 2
 95 721 l 1
 71 724 47 727 24 734 c 0
 12 738 0 742 -12 748 c 1
 -14 750 -17 751 -20 753 c 0
 -22 754 -24 756 -26 757 c 0
 -26 758 l 0
 -28 760 -31 761 -33 761 c 2
117 747 m 2
 119 749 l 2
 118 750 l 0
 117 750 117 748 117 747 c 2
69 215 m 1
 66 214 62 212 60 211 c 2
 58 204 l 2
 57 204 l 1
 65 192 65 195 69 215 c 1
EndSplineSet
Validated: 549
EndChar
StartChar: glyph 10
Encoding: 10 74 10
Width: 343
Flags: W
HStem: 759 20G<39 43.5> 827 21G<40 44 51 53 55.5 57 234 246>
VStem: 499 42<105.906 217.203>
LayerCount: 2
Back
Fore
SplineSet
54 829 m 0
 54 829 53 828 53 827 c 1
 52 827 l 0
 50 827 47 830 46 828 c 0
 17 758 1 769 26 755 c 0
 41 748 58 745 74 742 c 0
 112 736 151 732 190 728 c 0
 198 727 205 727 213 726 c 1
 219 717 225 709 231 700 c 0
 243 682 254 663 265 645 c 0
 282 617 298 590 315 562 c 0
 336 527 355 491 374 454 c 0
 394 414 414 374 432 334 c 0
 449 297 464 259 477 221 c 0
 486 194 495 167 498 139 c 0
 499 134 499 130 499 125 c 0
 499 122 499 117 499 114 c 0
 481 101 460 104 439 107 c 0
 406 114 374 128 345 146 c 0
 338 150 333 155 326 159 c 0
 286 186 251 219 218 254 c 0
 190 284 165 317 140 350 c 0
 122 373 105 396 87 419 c 0
 79 430 70 441 63 452 c 1
 26 390 l 1
 34 379 43 368 51 358 c 0
 69 335 87 313 105 290 c 0
 131 258 158 226 186 196 c 0
 220 161 255 127 296 99 c 0
 333 74 369 54 413 43 c 0
 438 38 462 34 485 46 c 0
 489 48 492 50 495 52 c 0
 522 77 506 60 538 131 c 0
 540 134 539 138 540 142 c 0
 542 155 542 168 541 181 c 0
 536 214 527 246 515 277 c 0
 501 315 485 353 468 390 c 0
 449 430 430 470 410 510 c 0
 391 547 372 584 351 620 c 0
 334 648 318 677 302 705 c 0
 299 710 296 715 293 720 c 1
 302 719 312 719 321 718 c 0
 351 716 381 712 411 709 c 1
 436 776 l 1
 406 778 375 779 345 781 c 0
 315 783 284 785 254 787 c 0
 253 788 252 789 251 790 c 0
 249 793 247 797 246 801 c 2
 238 788 l 1
 230 789 222 790 214 791 c 0
 176 795 138 799 101 807 c 0
 87 810 72 814 60 822 c 0
 61 827 l 2
 59 827 58 826 56 826 c 0
 55 828 55 829 54 829 c 0
44 779 m 2
 43 774 41 769 39 764 c 2
 44 779 l 2
28 755 m 0
 30 755 l 0
 32 755 33 755 35 755 c 1
 35 754 34 754 34 753 c 0
 33 751 30 754 28 755 c 0
494 88 m 1
 493 85 489 75 490 78 c 0
 492 82 493 85 494 88 c 1
EndSplineSet
Validated: 549
EndChar
StartChar: glyph 11
Encoding: 11 75 11
Width: 451
Flags: W
HStem: 624 68<318.685 456.532>
VStem: 177 44<748.474 888.578> 483 43<278.031 343 482 598.06>
LayerCount: 2
Back
Fore
SplineSet
230 927 m 1
 227 927 223 926 220 925 c 0
 217 923 214 921 212 918 c 0
 180 853 185 875 179 847 c 0
 176 833 176 818 177 804 c 0
 178 781 183 758 189 736 c 0
 197 708 206 680 216 653 c 0
 217 651 217 650 218 648 c 1
 208 646 197 644 187 642 c 0
 162 638 136 634 111 636 c 0
 105 637 98 638 92 640 c 0
 88 642 86 644 82 646 c 1
 81 644 l 2
 78 646 74 648 71 650 c 0
 65 656 59 662 56 670 c 0
 54 674 52 678 51 682 c 2
 42 668 l 2
 41 668 l 0
 33 681 26 694 18 707 c 0
 10 720 3 732 -5 745 c 0
 -13 758 -20 770 -28 783 c 0
 -35 795 -43 808 -50 820 c 0
 -57 832 -64 843 -71 855 c 0
 -77 865 -83 874 -89 884 c 0
 -93 890 -96 896 -100 902 c 0
 -102 905 -104 908 -105 911 c 2
 -145 846 l 2
 -143 844 -141 841 -139 838 c 0
 -135 832 -131 826 -127 820 c 0
 -121 811 -115 802 -109 792 c 0
 -102 781 -96 770 -89 758 c 0
 -82 746 -74 733 -67 721 c 0
 -59 708 -52 696 -44 683 c 0
 -36 670 -28 658 -20 645 c 0
 -12 632 -5 620 3 607 c 0
 11 594 18 581 25 568 c 0
 32 555 40 542 47 529 c 0
 54 517 61 505 69 493 c 0
 76 481 84 470 92 458 c 0
 99 446 106 435 114 423 c 0
 122 411 130 399 138 387 c 0
 146 375 155 362 163 350 c 0
 171 338 179 325 187 313 c 0
 194 301 202 290 209 278 c 0
 216 267 223 256 230 245 c 0
 237 234 244 224 251 213 c 0
 258 203 264 192 271 182 c 0
 277 173 282 164 288 155 c 2
 291 152 l 1
 329 215 l 1
 327 218 l 2
 321 227 315 235 309 244 c 0
 302 254 296 266 289 276 c 0
 282 287 276 296 269 307 c 0
 262 318 255 330 248 341 c 0
 241 353 233 363 225 375 c 0
 217 387 209 400 201 412 c 0
 193 424 184 437 176 449 c 0
 168 461 160 473 152 485 c 0
 145 497 137 508 130 520 c 0
 125 528 119 537 114 545 c 1
 123 540 131 536 140 531 c 0
 162 519 184 505 206 492 c 0
 224 481 243 470 261 458 c 0
 271 451 280 445 289 437 c 0
 292 435 295 433 297 430 c 2
 312 457 l 1
 339 497 l 1
 336 503 333 509 331 515 c 0
 324 531 318 548 311 564 c 0
 306 577 301 590 296 603 c 1
 316 608 337 612 357 616 c 0
 378 620 400 624 422 624 c 0
 438 623 447 619 457 606 c 0
 467 592 471 574 474 557 c 0
 478 532 479 507 480 482 c 0
 481 451 482 421 482 390 c 0
 482 356 482 322 483 288 c 0
 484 257 486 225 490 194 c 0
 493 169 497 145 502 121 c 0
 505 108 503 114 506 102 c 1
 508 104 l 2
 509 103 508 103 509 102 c 2
 527 131 l 1
 548 161 l 2
 547 164 547 164 547 165 c 2
 548 167 l 2
 549 171 548 174 547 178 c 0
 545 194 546 211 547 227 c 0
 550 255 558 282 568 308 c 0
 570 312 571 317 573 321 c 0
 574 323 575 325 576 327 c 0
 582 339 588 351 595 363 c 1
 605 435 l 1
 598 423 591 410 585 397 c 0
 565 357 546 318 529 277 c 1
 527 299 526 321 526 343 c 0
 525 377 525 411 525 445 c 0
 525 476 524 507 523 538 c 0
 522 564 521 589 516 615 c 0
 512 634 506 654 493 669 c 0
 491 671 489 674 487 676 c 0
 476 686 462 691 447 692 c 0
 424 693 401 688 378 683 c 0
 347 676 316 670 286 663 c 0
 282 662 278 661 274 660 c 1
 268 677 261 694 255 711 c 0
 246 738 237 765 230 793 c 0
 225 815 221 838 221 861 c 0
 221 871 223 880 225 889 c 1
 214 865 196 828 204 852 c 0
 205 853 205 855 207 855 c 2
 230 927 l 1
225 889 m 1
 231 903 235 913 229 902 c 0
 227 898 226 893 225 889 c 1
239 591 m 1
 241 585 244 578 246 572 c 0
 249 563 253 554 256 545 c 1
 250 549 244 552 238 556 c 0
 224 565 209 573 194 581 c 1
 209 584 224 588 239 591 c 1
EndSplineSet
Validated: 553
EndChar
StartChar: glyph 12
Encoding: 12 76 12
Width: 312
Flags: W
HStem: 206 64<280.657 418> 211 66<280.218 416.126> 387 7<416.001 418> 760 68<-32.4829 8 76 152.485> 767 61<121.515 153>
VStem: 236 44<280 364.385>
LayerCount: 2
Back
Fore
SplineSet
-36 845 m 2x24
 -37 845 l 2
 -36 845 l 2x24
-37 845 m 1
 -37 844 l 0
 -37 845 l 1
-37 844 m 2
 -81 784 l 1
 -78 779 -72 775 -67 772 c 0
 -53 764 -38 763 -22 761 c 0
 -12 760 -2 760 8 760 c 1
 3 752 l 1
 8 746 12 741 16 735 c 0
 27 719 39 702 49 685 c 0
 66 657 83 629 99 601 c 0
 119 566 138 531 157 495 c 0
 176 459 192 422 207 384 c 0
 220 352 230 319 236 286 c 0
 236 284 236 282 236 280 c 1
 222 281 209 284 196 286 c 0
 161 291 127 297 93 306 c 0
 70 312 48 319 26 327 c 0
 14 332 1 337 -11 343 c 0
 -15 345 -19 347 -23 350 c 1
 -56 282 l 1
 -51 280 -47 277 -42 275 c 0
 -46 267 l 1
 -33 258 -40 262 -26 253 c 0
 -1 237 24 221 49 206 c 0xb4
 76 191 105 176 135 167 c 0
 160 161 185 157 210 165 c 0
 218 168 221 169 228 174 c 0
 231 176 241 183 243 187 c 0
 249 198 252 207 256 214 c 1
 270 213 285 212 299 211 c 0x64
 339 209 378 208 418 206 c 0
 447 205 476 203 505 202 c 0
 525 201 544 201 564 200 c 0
 578 199 591 199 605 199 c 0
 614 199 624 199 633 199 c 0
 639 199 646 199 652 199 c 0
 656 199 661 199 665 199 c 0
 667 199 670 199 672 199 c 2
 697 270 l 2
 695 270 695 270 693 270 c 2
 694 272 l 1
 679 274 664 278 650 282 c 0
 630 287 609 294 589 300 c 0
 566 308 543 315 520 325 c 0
 500 333 480 342 461 353 c 0
 449 360 438 367 427 375 c 0
 425 377 422 378 420 380 c 2
 426 395 l 2
 424 395 420 394 418 394 c 0
 415 394 413 395 410 395 c 0
 379 396 410 421 371 327 c 0
 376 323 l 0
 381 318 387 313 393 309 c 0
 405 301 417 295 430 288 c 0
 443 282 456 276 469 270 c 1
 460 270 451 270 442 270 c 0xa4
 402 271 363 272 323 274 c 0
 309 275 294 276 280 277 c 1
 283 300 281 320 276 343 c 0
 269 376 258 409 245 441 c 0
 229 479 212 516 193 552 c 0
 174 588 155 624 135 659 c 0
 119 688 103 717 86 746 c 0
 83 752 80 757 76 763 c 1
 91 764 106 765 121 766 c 0
 132 767 142 766 153 767 c 1x6c
 177 836 l 1
 166 835 156 835 145 834 c 0
 123 832 99 830 77 828 c 0
 53 826 28 826 4 828 c 0x34
 -9 830 -22 830 -33 838 c 0
 -34 839 -37 842 -37 844 c 2
418 387 m 0
 419 386 l 0
 419 385 417 385 417 384 c 1
 417 385 416 385 416 386 c 0
 416 386 417 387 418 387 c 0
387 324 m 0
 388 324 l 1
 388 323 387 322 387 321 c 0
 387 320 386 322 385 322 c 0
 384 323 l 0
 385 323 l 0
 386 323 386 324 387 324 c 0
232 214 m 1
 224 198 226 202 232 214 c 1
EndSplineSet
Validated: 549
EndChar
StartChar: glyph 13
Encoding: 13 77 13
Width: 542
Flags: W
HStem: 267 67<-23.8125 47 78 141.391> 847 21G<426.5 428>
VStem: 355 42<486.982 512.668> 374 46<551.572 788.249> 383 36<665.924 814>
LayerCount: 2
Back
Fore
SplineSet
433 870 m 2xc8
 383 814 l 2xc8
 383 810 381 807 380 803 c 0
 378 795 377 786 376 778 c 0
 374 764 374 751 374 737 c 0xd0
 373 727 371 717 370 707 c 0
 366 676 363 647 360 616 c 0
 357 577 354 537 355 498 c 0
 355 494 355 490 355 486 c 1xe0
 349 502 342 518 336 534 c 0
 322 569 308 603 292 637 c 0
 277 668 261 698 241 726 c 0
 226 745 209 764 188 777 c 0
 170 786 154 792 133 789 c 0
 113 785 98 777 83 764 c 0
 77 758 75 757 69 750 c 0
 45 722 32 685 19 651 c 0
 12 626 9 601 12 575 c 0
 16 545 25 516 38 488 c 0
 52 457 68 428 88 400 c 0
 105 376 123 353 142 331 c 1
 129 332 116 334 103 334 c 0
 84 335 65 335 47 333 c 0
 34 331 22 330 10 327 c 0
 3 325 -5 323 -12 321 c 0
 -16 320 -20 319 -24 318 c 2
 -35 246 l 2
 -34 247 -33 249 -32 249 c 0
 -26 252 -19 254 -12 256 c 0
 0 260 12 262 24 264 c 0
 42 267 60 267 78 267 c 0
 100 267 121 264 143 261 c 0
 163 258 183 254 202 250 c 0
 214 247 226 244 238 241 c 0
 246 235 253 229 261 224 c 0
 271 217 281 211 292 206 c 0
 296 204 300 202 304 200 c 1
 334 269 l 2
 332 269 331 270 329 271 c 2
 337 287 l 1
 332 288 328 291 323 292 c 0
 316 294 309 296 302 298 c 0
 292 301 282 304 272 307 c 0
 270 308 268 309 266 309 c 0
 259 314 253 320 246 325 c 0
 224 342 204 361 185 381 c 0
 162 405 143 432 124 459 c 0
 105 486 88 516 75 546 c 0
 63 574 57 602 54 632 c 0
 53 649 55 664 59 680 c 0
 62 685 66 690 70 694 c 0
 82 707 96 714 112 719 c 0
 129 723 142 720 157 712 c 0
 177 701 192 683 206 666 c 0
 226 639 241 610 255 580 c 0
 271 546 285 512 298 477 c 0
 309 447 320 417 331 387 c 0
 339 365 346 343 354 321 c 0
 359 306 365 291 370 276 c 0
 373 268 371 272 374 264 c 1xd0
 382 276 l 1
 388 255 394 235 404 216 c 0
 410 205 415 194 424 185 c 0
 428 181 434 177 439 174 c 0
 442 172 444 170 447 169 c 2
 478 239 l 2
 476 240 474 241 472 242 c 0
 468 244 464 247 461 250 c 0
 454 258 448 267 443 277 c 0
 433 295 428 316 422 336 c 0
 414 367 408 398 404 430 c 0
 400 458 398 485 397 513 c 1xe0
 401 494 406 476 411 457 c 0
 418 430 427 404 438 378 c 0
 448 354 461 329 473 306 c 0
 485 284 498 264 512 244 c 0
 525 225 538 206 552 188 c 0
 564 172 577 157 590 142 c 0
 600 130 612 120 623 109 c 0
 631 101 639 93 648 86 c 0
 651 83 655 81 658 78 c 1
 693 144 l 1
 690 147 686 148 683 151 c 0
 674 158 666 166 658 173 c 0
 647 183 636 194 626 205 c 0
 613 219 600 234 588 249 c 0
 574 267 562 285 549 304 c 0
 536 324 522 345 511 366 c 0
 499 389 487 412 477 436 c 0
 467 462 458 487 451 514 c 0
 444 540 438 568 434 595 c 0
 430 621 427 646 425 672 c 0
 423 695 421 717 420 740 c 0xd0
 419 756 418 773 419 789 c 0
 421 801 423 814 425 826 c 0
 426 834 427 842 428 850 c 2
 426 847 l 2
 427 851 428 856 429 860 c 0
 430 864 431 867 433 870 c 2xc8
-35 246 m 2
 -36 245 -37 245 -37 244 c 0
 -36 243 l 2
 -35 246 l 2
72 716 m 0
 72 716 70 709 66 701 c 1
 66 702 67 703 67 704 c 0
 71 712 72 716 72 716 c 0
EndSplineSet
Validated: 549
EndChar
StartChar: glyph 14
Encoding: 14 78 14
Width: 361
Flags: W
LayerCount: 2
Back
Fore
SplineSet
294 859 m 1
 250 801 l 1
 251 788 251 776 252 764 c 0
 255 737 260 709 264 682 c 0
 270 643 277 604 286 566 c 0
 297 521 311 477 330 435 c 0
 338 418 346 401 354 384 c 1
 339 398 323 412 308 427 c 0
 278 455 249 484 220 513 c 0
 192 541 163 569 136 597 c 0
 113 621 91 644 69 669 c 0
 53 687 37 705 21 723 c 0
 10 735 0 746 -12 757 c 0
 -19 763 -26 770 -34 775 c 0
 -37 777 -40 780 -44 782 c 1
 -77 714 l 2
 -76 714 -74 713 -73 712 c 2
 -81 700 l 1
 -78 695 -74 690 -70 685 c 0
 -57 667 -44 648 -31 630 c 0
 -5 592 19 554 43 516 c 0
 72 471 100 425 128 379 c 0
 152 339 176 299 200 259 c 0
 213 237 207 248 219 227 c 1
 255 286 l 1
 242 306 248 296 235 317 c 0
 210 356 186 395 162 434 c 0
 139 472 115 509 92 547 c 1
 95 544 99 540 102 537 c 0
 130 509 158 481 187 454 c 0
 217 426 246 397 275 368 c 0
 300 343 326 319 352 295 c 0
 371 277 390 258 410 240 c 0
 424 227 438 215 452 202 c 0
 457 197 462 193 467 188 c 1
 502 252 l 2
 500 254 497 256 495 258 c 2
 504 274 l 2
 501 276 499 279 497 282 c 0
 489 292 480 302 472 313 c 0
 455 335 439 358 424 381 c 0
 402 416 383 452 366 490 c 0
 347 532 335 576 325 620 c 0
 316 659 311 699 305 738 c 0
 301 766 297 793 295 821 c 0
 294 834 294 846 294 859 c 1
EndSplineSet
Validated: 521
EndChar
StartChar: glyph 15
Encoding: 15 79 15
Width: 438
Flags: W
HStem: 586 62<85.4539 212> 740 20G<-36 -35.5> 814 67<7.79611 146.078>
VStem: 461 43<235.798 394.688>
LayerCount: 2
Back
Fore
SplineSet
82 881 m 0
 68 881 54 879 40 875 c 0
 23 870 9 861 -5 850 c 0
 -38 823 -45 790 -64 749 c 0
 -69 732 -68 714 -64 697 c 0
 -58 675 -44 660 -28 645 c 0
 -15 634 0 625 16 618 c 1
 20 606 24 593 28 581 c 0
 34 562 41 544 48 526 c 0
 56 505 64 484 73 463 c 0
 82 442 91 421 101 400 c 0
 111 379 123 358 135 338 c 0
 147 317 160 296 174 276 c 0
 187 257 202 240 218 223 c 0
 233 207 250 194 267 181 c 0
 283 170 301 160 319 153 c 0
 335 147 351 144 368 142 c 0
 383 141 397 142 411 146 c 0
 425 150 437 158 447 168 c 0
 473 199 491 238 501 277 c 0
 506 299 505 321 504 343 c 0
 502 370 496 396 489 422 c 0
 480 453 468 482 455 511 c 0
 443 539 429 566 413 592 c 1
 425 592 436 594 448 594 c 0
 449 594 450 593 451 593 c 0
 456 592 461 593 466 592 c 2
 476 591 l 1
 482 590 l 2
 484 590 486 589 488 589 c 0
 489 589 490 589 491 589 c 2
 519 660 l 2
 518 660 516 660 515 660 c 0
 513 660 512 660 510 660 c 2
 503 661 l 2
 500 661 496 662 493 662 c 0
 492 662 l 2
 492 663 l 2
 490 663 488 662 486 662 c 0
 483 662 481 663 478 663 c 0
 471 664 464 664 457 665 c 0
 449 666 441 667 433 668 c 0
 424 669 416 671 407 672 c 0
 397 674 387 675 377 677 c 0
 369 678 361 680 353 682 c 0
 352 684 349 686 348 688 c 0
 329 714 310 738 289 762 c 0
 270 784 250 803 228 822 c 0
 208 839 186 853 162 864 c 0
 141 873 119 877 97 880 c 0
 92 881 87 881 82 881 c 0
64 814 m 0
 66 814 69 813 71 813 c 0
 92 811 113 807 132 799 c 0
 155 789 176 776 195 760 c 0
 212 746 227 730 242 714 c 1
 237 716 231 719 226 721 c 0
 215 726 204 732 193 738 c 0
 186 742 178 747 171 752 c 0
 169 753 165 757 165 759 c 2
 125 694 l 1
 129 691 133 689 137 686 c 0
 145 681 153 676 161 671 c 0
 172 665 183 660 195 655 c 0
 200 653 207 650 212 648 c 1
 209 648 206 648 203 648 c 0
 162 650 120 654 81 667 c 0
 74 670 66 672 59 675 c 0
 58 678 58 682 57 685 c 0
 55 695 52 704 50 714 c 0
 49 718 49 722 50 726 c 2
 25 693 l 1
 19 697 12 703 6 708 c 0
 -8 722 -18 735 -21 755 c 0
 -22 762 -23 770 -22 777 c 0
 -21 778 -21 778 -20 779 c 0
 -8 790 5 799 20 805 c 0
 34 810 49 814 64 814 c 0
-35 760 m 1
 -37 756 -39 751 -41 747 c 0
 -42 745 -39 752 -38 754 c 0
 -37 756 -36 758 -35 760 c 1
84 596 m 1
 115 590 147 587 179 586 c 0
 223 585 266 586 310 588 c 0
 320 588 331 589 341 589 c 1
 351 574 362 559 371 544 c 0
 388 515 404 484 417 453 c 0
 429 424 441 396 449 365 c 0
 455 340 460 313 461 287 c 0
 461 270 460 252 456 235 c 1
 449 227 442 220 432 216 c 0
 420 212 407 209 394 210 c 0
 379 211 363 214 348 219 c 0
 331 226 315 234 300 245 c 0
 283 257 267 270 253 285 c 0
 238 301 224 319 211 337 c 0
 197 357 185 377 173 398 c 0
 162 418 150 439 140 460 c 0
 130 481 121 501 112 522 c 0
 104 543 95 564 88 585 c 0
 87 589 85 592 84 596 c 1
480 277 m 0
 480 277 478 270 474 263 c 1
 479 273 480 277 480 277 c 0
EndSplineSet
Validated: 549
EndChar
StartChar: glyph 16
Encoding: 16 80 16
Width: 364
Flags: W
HStem: 229 67<165.832 212.603> 287 9<157 165.745> 442 65<200.109 437.91>
LayerCount: 2
Back
Fore
SplineSet
-124 910 m 2xa0
 -167 847 l 1
 -163 842 -159 838 -155 834 c 0
 -146 825 -135 818 -124 810 c 0
 -108 799 -91 788 -75 777 c 0
 -72 775 -69 774 -66 772 c 2
 -77 751 l 1
 -73 748 -69 742 -65 738 c 0
 -52 722 -42 705 -30 688 c 0
 -9 658 12 627 33 597 c 0
 56 565 77 532 98 498 c 1
 84 497 69 496 55 495 c 1
 31 427 l 1
 58 430 84 433 111 435 c 0
 118 436 127 436 134 437 c 1
 146 416 158 395 170 374 c 0
 185 348 199 320 213 294 c 1
 207 295 201 296 195 297 c 0
 181 298 166 298 152 296 c 0
 151 296 149 296 148 296 c 0
 147 296 145 296 144 295 c 0
 120 248 96 242 120 221 c 0
 122 219 124 218 126 216 c 2
 161 283 l 2
 160 284 157 286 157 287 c 1x60
 183 286 148 244 136 225 c 1
 147 230 159 229 170 229 c 0
 195 228 221 223 245 216 c 0
 269 209 292 200 315 190 c 2
 324 186 l 1
 354 251 l 1
 345 255 l 2
 326 263 306 271 286 277 c 1
 290 283 l 1
 279 301 268 319 258 337 c 0
 240 368 223 400 205 431 c 0
 203 435 201 438 199 442 c 1
 205 442 212 443 218 443 c 0
 254 445 289 445 325 447 c 0
 354 449 383 451 412 457 c 0
 430 461 450 465 465 476 c 1
 489 527 513 539 484 577 c 0
 468 594 449 608 428 620 c 0
 398 637 367 651 335 665 c 0
 298 681 261 696 224 710 c 0
 187 724 151 739 115 755 c 0
 84 769 54 784 25 800 c 0
 2 813 -21 826 -43 841 c 0
 -59 852 -76 862 -91 874 c 0
 -101 881 -110 890 -118 899 c 0
 -120 902 -125 906 -124 910 c 2xa0
136 225 m 1
 135 225 134 225 133 224 c 0
 133 223 132 223 132 222 c 0
 132 221 133 219 133 220 c 0
 134 221 135 223 136 225 c 1
23 722 m 1
 44 712 65 702 86 693 c 0
 122 677 159 663 196 649 c 0
 233 635 270 620 307 604 c 0
 338 590 368 574 397 557 c 0
 412 548 426 538 438 526 c 1
 437 526 434 525 433 525 c 0
 405 518 377 515 348 513 c 0
 312 510 277 509 241 507 c 0
 215 506 190 504 164 502 c 1
 156 516 148 529 140 543 c 0
 117 581 93 619 68 655 c 0
 53 677 38 699 23 722 c 1
453 500 m 1
 453 498 452 495 451 493 c 0
 450 492 447 488 448 489 c 0
 449 493 451 497 453 500 c 1
EndSplineSet
Validated: 549
EndChar
StartChar: glyph 17
Encoding: 17 81 17
Width: 333
Flags: W
HStem: 64 67<419.363 473.925>
VStem: -91 46<277.469 341.342>
LayerCount: 2
Back
Fore
SplineSet
155 910 m 2
 120 842 l 2
 123 840 126 838 129 836 c 0
 135 831 141 826 146 821 c 0
 154 814 160 806 166 797 c 0
 172 786 176 775 178 763 c 0
 180 749 179 734 176 720 c 0
 175 716 174 712 173 708 c 0
 168 700 163 691 157 683 c 0
 149 671 140 660 131 648 c 1
 131 649 132 651 132 652 c 0
 133 655 133 657 135 659 c 2
 119 643 l 2
 117 645 116 647 114 649 c 2
 95 616 l 1
 84 604 l 2
 84 602 84 599 84 597 c 2
 78 585 l 2
 79 584 80 583 81 582 c 0
 80 580 78 578 77 576 c 0
 63 557 47 539 33 520 c 0
 19 502 6 483 -7 464 c 0
 -19 447 -29 428 -38 409 c 0
 -57 372 -74 336 -85 296 c 0
 -89 281 -91 265 -91 250 c 0
 -91 237 -87 225 -80 214 c 0
 -72 203 -60 196 -48 191 c 0
 -31 184 -13 182 5 181 c 0
 32 179 58 181 85 183 c 0
 120 187 154 193 188 199 c 0
 196 200 205 201 213 203 c 1
 225 189 238 176 252 164 c 0
 270 149 290 136 310 124 c 0
 332 111 355 102 378 93 c 0
 398 86 419 78 440 72 c 0
 450 69 461 66 471 64 c 1
 499 131 l 1
 489 133 478 135 468 138 c 0
 448 144 427 150 407 157 c 0
 384 166 362 176 341 188 c 0
 325 198 309 208 294 220 c 1
 316 225 339 230 361 235 c 0
 378 239 395 244 412 248 c 0
 424 251 436 254 448 257 c 0
 455 259 461 261 468 263 c 1
 490 334 l 2
 489 334 489 334 488 334 c 2
 496 351 l 2
 493 352 490 353 487 354 c 0
 479 357 471 360 463 363 c 0
 449 369 436 375 423 382 c 0
 405 391 388 403 372 415 c 0
 350 431 329 448 308 465 c 0
 285 485 263 505 241 526 c 0
 221 544 201 563 182 582 c 0
 170 593 159 604 147 615 c 1
 158 630 169 646 178 663 c 0
 195 700 216 736 222 776 c 0
 224 792 224 807 220 822 c 0
 216 835 212 849 204 860 c 0
 197 869 190 878 182 886 c 0
 176 892 169 898 163 903 c 0
 160 905 158 908 155 910 c 2
135 659 m 2
 135 660 l 1
 135 659 l 2
187 735 m 1
 186 734 186 732 185 731 c 1
 186 732 186 734 187 735 c 1
166 690 m 1
 165 688 l 0
 164 685 161 677 162 680 c 0
 163 683 165 687 166 690 c 1
86 533 m 1
 87 518 90 504 92 489 c 0
 95 471 98 453 103 435 c 0
 108 415 115 396 122 376 c 0
 129 355 137 334 146 313 c 0
 154 294 163 276 173 258 c 1
 151 254 130 251 108 249 c 0
 82 247 56 246 30 248 c 0
 14 250 -2 251 -17 257 c 0
 -26 261 -35 268 -40 277 c 0
 -44 287 -46 297 -45 308 c 0
 -44 323 -41 337 -37 351 c 0
 -35 358 -34 359 -32 366 c 0
 -32 367 -32 370 -31 371 c 0
 -27 379 -22 387 -17 394 c 0
 -5 413 8 432 22 450 c 0
 36 469 51 487 65 506 c 0
 72 515 79 524 86 533 c 1
138 529 m 1
 142 526 144 522 148 519 c 0
 168 501 187 483 207 465 c 0
 229 445 252 424 275 404 c 0
 296 386 317 369 339 352 c 0
 356 339 374 327 392 317 c 0
 397 314 400 312 405 310 c 1
 397 308 390 305 382 303 c 0
 357 296 333 291 308 285 c 0
 287 280 266 275 245 271 c 1
 233 286 222 301 213 317 c 0
 203 335 193 354 185 373 c 0
 177 393 169 414 162 435 c 0
 156 455 150 474 145 494 c 0
 142 506 140 517 138 529 c 1
-18 400 m 0
 -18 400 -19 397 -23 388 c 1
 -20 394 -18 400 -18 400 c 0
-43 346 m 1
 -44 343 -45 341 -47 338 c 1
 -46 341 -44 343 -43 346 c 1
EndSplineSet
Validated: 549
EndChar
StartChar: glyph 18
Encoding: 18 82 18
Width: 499
Flags: W
HStem: 450 65<399 515.666>
VStem: 520 43<249.371 430.907>
LayerCount: 2
Back
Fore
SplineSet
-115 911 m 2
 -116 910 l 2
 -115 911 l 2
-116 910 m 2
 -164 853 l 2
 -163 849 -161 844 -160 840 c 0
 -157 830 -152 819 -147 810 c 0
 -141 800 -133 790 -124 782 c 1
 -129 772 l 2
 -126 769 -124 765 -122 762 c 0
 -113 749 -104 736 -96 723 c 0
 -80 698 -66 671 -52 644 c 0
 -32 605 -12 566 9 527 c 0
 16 514 24 501 31 488 c 1
 9 484 -13 480 -35 476 c 2
 -45 474 l 1
 -67 406 l 1
 -56 408 l 2
 -28 414 0 420 28 426 c 0
 40 428 51 431 63 433 c 1
 70 421 78 409 85 397 c 0
 109 357 132 318 155 278 c 0
 172 249 190 220 206 190 c 2
 212 179 l 1
 249 240 l 1
 243 250 l 2
 226 279 208 307 191 335 c 0
 170 370 148 405 127 440 c 1
 144 440 161 441 178 442 c 0
 213 444 247 446 282 447 c 0
 320 449 358 450 396 450 c 0
 425 450 454 450 482 446 c 0
 494 444 509 442 516 431 c 0
 517 429 518 428 519 426 c 0
 524 409 521 391 520 373 c 0
 518 346 518 318 520 291 c 0
 522 264 529 237 537 211 c 0
 544 190 553 170 563 150 c 0
 567 142 571 134 575 127 c 1
 613 189 l 1
 609 196 606 204 602 211 c 0
 593 230 583 249 577 269 c 0
 570 294 565 321 563 347 c 0
 561 374 561 401 564 428 c 0
 565 448 568 470 557 488 c 0
 555 490 553 493 551 495 c 0
 540 507 523 510 507 512 c 0
 478 515 448 515 419 515 c 0
 412 515 406 514 399 514 c 1
 411 526 410 540 427 578 c 0
 429 582 426 588 425 592 c 0
 420 603 411 612 401 619 c 0
 386 629 370 639 353 646 c 0
 330 656 307 666 284 675 c 0
 253 687 222 697 191 707 c 0
 156 719 121 731 86 744 c 0
 54 757 22 770 -8 786 c 0
 -31 799 -54 813 -74 831 c 0
 -87 843 -99 856 -107 872 c 0
 -111 881 -115 891 -116 901 c 0
 -116 903 -117 908 -116 910 c 2
-22 716 m 1
 4 703 30 692 57 682 c 0
 92 669 129 657 164 645 c 0
 195 635 225 623 255 611 c 0
 278 602 301 592 323 581 c 0
 337 574 350 567 363 558 c 1
 362 558 361 557 360 557 c 0
 332 548 305 541 276 535 c 0
 238 527 199 520 161 513 c 0
 155 512 149 511 143 510 c 0
 138 511 133 511 129 512 c 1
 126 506 l 1
 114 504 104 502 92 500 c 1
 76 528 59 555 44 583 c 0
 23 622 3 662 -16 702 c 0
 -18 707 -20 711 -22 716 c 1
406 584 m 0
 406 584 405 582 404 581 c 1
 405 582 405 583 406 584 c 0
382 534 m 1
 382 533 383 532 383 531 c 0
 383 530 382 529 382 528 c 0
 381 526 376 521 377 523 c 0
 379 527 380 530 382 534 c 1
EndSplineSet
Validated: 549
EndChar
StartChar: glyph 19
Encoding: 19 83 19
Width: 267
Flags: W
HStem: 726 51<-41 -5.72256>
LayerCount: 2
Back
Fore
SplineSet
-25 777 m 0
 -24 777 -22 776 -21 776 c 0
 -14 775 -8 773 -2 769 c 0
 5 765 11 760 17 754 c 0
 24 747 31 740 37 733 c 0
 45 724 53 716 60 707 c 0
 69 697 76 685 85 675 c 0
 95 663 104 652 114 640 c 0
 125 627 136 613 147 600 c 0
 159 585 172 569 184 554 c 0
 197 538 210 523 223 507 c 0
 236 492 248 477 261 462 c 0
 266 457 270 451 275 446 c 1
 275 447 274 449 274 450 c 0
 270 463 266 476 263 490 c 0
 260 505 257 520 254 535 c 0
 251 550 249 564 247 579 c 0
 245 591 244 603 243 616 c 0
 242 624 241 631 241 639 c 0
 241 642 242 645 241 648 c 2
 276 691 l 2
 275 688 275 685 275 682 c 0
 275 674 275 666 275 658 c 0
 276 645 277 634 278 621 c 0
 280 606 282 592 285 577 c 0
 288 562 290 548 293 533 c 0
 296 520 300 506 304 493 c 0
 307 482 310 471 314 460 c 0
 317 451 322 441 325 432 c 0
 328 425 330 417 333 410 c 0
 335 404 338 397 340 391 c 0
 342 386 345 381 347 375 c 0
 348 371 350 367 351 363 c 0
 352 360 353 356 354 353 c 0
 354 352 354 352 354 351 c 2
 324 306 l 2
 323 308 324 307 323 309 c 0
 322 307 l 2
 320 309 318 310 317 312 c 0
 314 315 313 319 310 322 c 0
 305 329 300 336 295 343 c 0
 287 354 279 365 271 376 c 0
 260 390 248 404 236 418 c 0
 223 433 210 448 197 463 c 0
 184 479 172 494 159 510 c 0
 147 525 134 541 122 556 c 0
 111 569 99 582 88 595 c 0
 78 607 69 618 59 630 c 0
 50 640 42 651 33 661 c 0
 26 670 19 678 11 687 c 0
 5 694 -2 701 -9 707 c 0
 -14 712 -20 717 -26 721 c 0
 -31 724 -36 726 -41 726 c 1
 -41 721 -40 717 -40 712 c 0
 -38 695 -34 678 -30 661 c 0
 -25 641 -19 622 -12 603 c 0
 -4 582 5 561 15 541 c 0
 25 519 36 499 48 478 c 0
 59 458 70 438 82 418 c 0
 92 401 102 384 113 368 c 0
 121 356 129 343 137 331 c 0
 143 323 148 313 154 305 c 0
 158 299 162 294 166 288 c 0
 169 284 173 280 178 277 c 0
 185 273 193 272 201 271 c 0
 214 269 226 268 239 266 c 0
 254 264 269 261 284 258 c 0
 300 255 318 254 334 252 c 0
 350 250 365 248 380 245 c 0
 393 243 407 240 420 238 c 0
 430 236 441 234 451 232 c 0
 459 230 466 229 474 227 c 0
 480 226 485 225 491 224 c 0
 495 223 499 223 503 222 c 0
 506 221 509 220 512 220 c 0
 514 220 516 219 518 219 c 0
 519 219 520 219 521 219 c 0
 523 219 525 218 526 217 c 0
 544 206 529 216 505 166 c 0
 502 165 l 0
 499 164 496 164 493 163 c 0
 488 162 484 159 480 157 c 0
 474 154 467 151 461 148 c 0
 453 143 445 139 437 135 c 0
 427 130 416 126 406 122 c 0
 394 117 383 111 371 106 c 0
 357 100 343 96 329 91 c 0
 314 86 298 81 283 76 c 0
 266 70 250 65 233 60 c 0
 215 55 196 51 178 46 c 0
 161 42 144 37 127 33 c 0
 114 30 101 26 88 23 c 0
 79 21 69 19 60 17 c 2
 53 15 l 1
 56 23 l 2
 53 22 51 21 48 20 c 0
 46 19 44 19 42 18 c 2
 57 71 l 2
 59 71 62 72 64 73 c 0
 69 74 74 75 79 77 c 0
 88 80 98 83 106 87 c 0
 120 94 132 104 144 114 c 0
 159 126 173 138 187 151 c 0
 196 159 205 167 213 176 c 1
 203 124 l 1
 194 116 186 108 177 100 c 0
 172 96 166 91 161 87 c 1
 172 90 182 92 193 95 c 0
 211 100 229 104 247 109 c 0
 264 114 281 119 297 125 c 0
 312 130 328 136 343 141 c 0
 357 146 371 151 385 157 c 0
 397 162 408 167 420 172 c 0
 426 175 433 178 439 181 c 1
 436 182 434 182 431 183 c 0
 421 185 410 187 400 189 c 0
 387 192 374 195 361 197 c 0
 346 200 330 202 315 204 c 0
 298 206 281 207 265 210 c 0
 250 212 234 215 219 217 c 0
 206 219 194 220 181 222 c 0
 172 223 163 225 155 229 c 0
 149 232 143 237 139 242 c 0
 134 248 130 254 126 260 c 0
 121 269 115 277 110 286 c 0
 102 299 94 311 86 324 c 0
 76 341 66 358 56 375 c 0
 44 395 32 415 21 435 c 0
 9 456 -2 477 -13 499 c 0
 -23 519 -32 540 -40 561 c 0
 -47 580 -55 599 -60 619 c 0
 -65 636 -69 653 -71 670 c 0
 -73 682 -74 695 -73 708 c 0
 -71 732 -61 759 -41 773 c 0
 -36 776 -30 777 -25 777 c 0
-36 756 m 0
 -36 756 -37 753 -37 752 c 0
 -38 751 l 1
 -37 752 -37 754 -36 755 c 0
 -36 756 l 0
-53 720 m 1
 -53 719 -54 719 -54 718 c 0
 -55 716 -57 711 -56 713 c 0
 -55 716 -54 717 -53 720 c 1
518 219 m 0
 518 219 l 0
EndSplineSet
Validated: 549
EndChar
StartChar: glyph 20
Encoding: 20 84 20
Width: 269
Flags: W
HStem: 608 67<149.484 305> 619 55<147.242 302.516>
LayerCount: 2
Back
Fore
SplineSet
-147 751 m 2x40
 -192 690 l 1
 -188 685 -183 681 -178 677 c 0
 -176 676 -174 673 -172 672 c 0
 -168 666 -163 660 -159 654 c 0
 -147 637 -134 620 -122 603 c 0
 -108 584 -94 565 -80 546 c 0
 -71 533 -61 520 -51 508 c 0
 -48 504 -45 501 -42 497 c 1
 -5 563 l 1
 -8 566 -11 569 -14 572 c 0
 -25 583 -34 596 -43 608 c 0x80
 -50 618 -58 627 -65 637 c 1
 -51 635 -36 633 -22 631 c 0
 15 627 52 624 89 622 c 1
 92 611 95 600 99 589 c 0
 112 551 127 514 142 477 c 0
 159 437 176 398 193 358 c 0
 207 325 221 291 235 258 c 0
 243 238 252 218 260 198 c 1
 300 258 l 1
 291 277 282 297 273 316 c 0
 258 349 244 381 230 414 c 0
 213 453 195 493 179 533 c 0
 167 561 157 590 147 619 c 1x40
 200 616 252 614 305 612 c 0
 337 610 370 609 402 608 c 0
 415 608 427 607 440 607 c 1
 465 675 l 1
 452 675 439 675 426 675 c 0x80
 393 674 361 674 328 674 c 0
 275 675 221 676 168 679 c 0
 155 680 143 680 130 681 c 1
 128 692 125 704 124 715 c 0
 124 721 123 729 126 734 c 2
 83 684 l 1
 56 686 29 689 2 693 c 0
 -33 698 -67 704 -100 717 c 0
 -112 722 -124 727 -134 735 c 0
 -135 736 l 2
 -138 738 -141 740 -143 742 c 0
 -145 744 -150 748 -147 751 c 2x40
EndSplineSet
Validated: 517
EndChar
StartChar: glyph 21
Encoding: 21 85 21
Width: 449
Flags: W
VStem: 293 44<235.276 443.541>
LayerCount: 2
Back
Fore
SplineSet
280 794 m 2
 236 732 l 2
 237 727 238 722 239 717 c 0
 242 702 245 688 249 673 c 1
 246 669 l 1
 249 651 253 634 256 616 c 0
 263 579 270 541 276 504 c 0
 283 458 290 412 293 365 c 0
 296 322 298 280 293 237 c 0
 293 236 292 236 292 235 c 1
 286 237 280 242 276 245 c 0
 260 259 247 274 233 290 c 0
 214 312 195 335 178 359 c 0
 156 389 135 419 116 450 c 0
 96 483 76 517 59 552 c 0
 44 582 31 612 17 643 c 0
 7 664 -2 685 -12 705 c 0
 -17 715 -22 725 -27 735 c 0
 -28 738 -31 742 -30 745 c 2
 -75 684 l 1
 -72 680 -69 676 -67 672 c 0
 -62 662 -56 653 -51 643 c 0
 -40 624 -31 604 -21 584 c 0
 -7 554 7 524 22 494 c 0
 40 459 60 425 81 392 c 0
 101 361 121 330 143 300 c 0
 160 276 179 252 198 229 c 0
 212 212 226 196 242 181 c 0
 252 173 264 165 277 166 c 0
 280 166 281 167 284 168 c 0
 286 169 289 170 291 172 c 0
 293 174 297 175 298 178 c 0
 310 201 320 226 331 250 c 0
 333 254 333 257 334 261 c 0
 336 273 336 279 337 291 c 0
 339 333 336 376 333 418 c 0
 332 427 332 435 331 444 c 1
 332 441 333 439 334 436 c 0
 353 394 372 352 391 310 c 0
 398 293 406 277 413 260 c 1
 412 260 412 259 411 259 c 0
 410 259 408 260 407 259 c 0
 372 194 361 212 377 189 c 0
 380 185 384 182 388 179 c 0
 391 177 393 175 396 173 c 2
 404 190 l 1
 418 190 431 185 444 181 c 0
 446 180 448 180 450 179 c 0
 452 176 453 172 455 169 c 2
 459 176 l 1
 471 171 482 166 493 160 c 0
 502 155 498 158 507 153 c 1
 538 219 l 1
 529 224 533 221 524 226 c 0
 512 232 500 237 487 242 c 1
 482 252 476 263 471 273 c 0
 456 304 442 336 428 367 c 0
 409 409 390 449 371 491 c 0
 352 535 332 579 318 624 c 0
 308 658 298 692 291 727 c 0
 288 744 284 761 282 778 c 0
 281 783 281 789 280 794 c 2
309 251 m 0
 309 251 307 246 306 244 c 0
 305 242 305 241 304 239 c 0
 303 238 l 1
 305 242 307 246 309 250 c 0
 309 251 l 0
396 189 m 1
 395 188 395 186 394 185 c 0
 394 184 393 185 393 186 c 0
 393 187 393 188 394 188 c 0
 395 188 395 189 396 189 c 1
EndSplineSet
Validated: 549
EndChar
StartChar: glyph 22
Encoding: 22 86 22
Width: 338
Flags: W
HStem: 617 66<-62.9949 67> 849 20G<224.5 225.5 233.5 234.5> 855 62G<218 218.5 238 244>
VStem: 187 45<667.03 781 787 868.625>
LayerCount: 2
Back
Fore
SplineSet
250 943 m 0xd0
 247 943 244 942 241 941 c 0
 234 939 231 934 227 928 c 0
 208 894 194 869 190 834 c 0
 188 818 187 803 187 787 c 0
 188 766 190 745 192 724 c 0
 195 701 199 677 203 654 c 0
 208 630 213 607 219 584 c 0
 226 561 233 537 241 514 c 0
 248 491 257 469 266 447 c 0
 270 436 274 425 278 414 c 1
 256 445 234 475 212 506 c 0
 191 536 171 567 151 597 c 0
 146 604 142 611 137 618 c 1
 143 618 148 617 154 617 c 2
 165 616 l 1
 190 683 l 1
 179 683 l 2
 149 684 119 685 89 686 c 0
 88 686 l 0
 86 688 85 690 83 691 c 0
 80 694 77 696 74 699 c 1
 67 687 l 1
 41 688 16 690 -10 693 c 0
 -28 696 -46 699 -63 705 c 0
 -67 707 -72 709 -75 712 c 1
 -111 644 l 1
 -106 641 -99 639 -93 637 c 0
 -74 632 -55 629 -36 627 c 0
 -7 624 22 623 51 622 c 1
 58 615 65 606 71 598 c 0
 86 578 101 558 115 538 c 0
 136 508 156 478 177 448 c 0
 201 415 225 382 249 349 c 0
 271 319 293 289 315 258 c 0
 331 235 348 211 364 188 c 0
 369 181 374 174 379 167 c 0
 380 164 381 161 383 158 c 2
 423 222 l 1
 421 227 418 231 416 236 c 0
 412 244 409 253 405 261 c 0
 400 272 395 282 390 293 c 0
 384 307 378 322 372 336 c 0
 365 353 359 370 352 387 c 0
 345 406 337 425 330 444 c 0
 322 465 313 485 305 506 c 0
 297 528 288 550 281 573 c 0
 274 596 266 619 260 642 c 0
 254 665 249 688 245 712 c 0
 241 735 237 758 235 781 c 0
 233 802 232 823 232 844 c 0
 232 853 233 861 234 869 c 1
 235 868 236 867 237 866 c 0
 238 865 240 863 240 862 c 2
 278 927 l 2
 276 928 275 930 273 932 c 0
 271 934 268 936 266 938 c 0
 263 940 260 941 256 942 c 0
 254 942 252 943 250 943 c 0xd0
253 928 m 0
 254 928 250 920 238 896 c 1
 238 898 239 900 240 902 c 0
 244 914 252 928 253 928 c 0
226 871 m 1
 223 866 220 861 217 855 c 1xb0
 219 860 220 864 223 868 c 0
 224 869 225 870 226 871 c 1
EndSplineSet
Validated: 553
EndChar
StartChar: glyph 23
Encoding: 23 87 23
Width: 423
Flags: W
VStem: 456 43<307.014 516.901>
LayerCount: 2
Back
Fore
SplineSet
209 866 m 1
 175 800 l 1
 179 797 184 794 188 791 c 0
 201 782 213 774 226 765 c 0
 245 752 264 739 283 725 c 0
 308 706 332 686 353 663 c 0
 377 636 398 606 413 573 c 0
 429 537 442 501 448 462 c 0
 454 426 458 389 456 352 c 0
 454 331 450 310 444 290 c 0
 441 285 437 280 433 276 c 0
 423 266 411 257 397 253 c 0
 383 250 368 249 354 253 c 0
 337 258 322 267 308 279 c 0
 291 295 275 312 261 331 c 0
 246 353 233 375 222 399 c 0
 212 423 202 448 195 473 c 0
 189 496 183 519 179 543 c 0
 176 562 172 582 170 602 c 0
 169 616 167 629 167 643 c 0
 167 651 167 660 167 668 c 0
 167 671 168 673 169 676 c 2
 152 656 l 2
 152 657 152 658 152 659 c 2
 121 619 l 1
 120 619 l 2
 120 618 l 2
 107 601 l 1
 108 591 109 580 110 570 c 0
 112 553 113 536 115 519 c 0
 118 496 121 471 123 448 c 0
 126 418 129 389 132 359 c 0
 134 339 136 321 138 301 c 1
 132 312 126 323 120 334 c 0
 107 357 93 380 80 403 c 0
 66 427 51 452 37 476 c 0
 23 500 10 523 -3 547 c 0
 -14 568 -24 589 -34 610 c 0
 -36 615 -38 619 -40 624 c 1
 -36 623 -31 623 -27 622 c 1
 -1 688 l 1
 -27 691 -52 694 -78 698 c 0
 -105 702 -132 706 -159 714 c 0
 -174 719 -189 723 -202 733 c 0
 -203 734 -209 738 -208 741 c 2
 -251 681 l 1
 -247 676 -243 671 -237 667 c 0
 -222 658 -205 654 -188 649 c 0
 -163 643 -136 638 -110 634 c 1
 -118 620 l 2
 -115 619 -112 616 -110 614 c 0
 -104 608 -99 600 -95 593 c 0
 -87 579 -80 565 -73 550 c 0
 -63 529 -52 508 -41 488 c 0
 -28 464 -14 440 0 416 c 0
 14 392 29 368 43 343 c 0
 56 320 69 297 82 274 c 0
 93 254 104 234 115 214 c 0
 123 199 132 183 140 168 c 0
 145 159 149 151 154 143 c 1
 193 206 l 2
 191 209 190 211 188 214 c 2
 201 232 l 2
 199 235 198 239 197 243 c 0
 195 253 194 263 192 273 c 0
 189 292 187 312 184 331 c 0
 184 334 183 338 183 341 c 1
 183 340 l 0
 195 315 209 293 225 271 c 0
 239 251 256 233 274 216 c 0
 289 202 306 192 325 186 c 0
 341 181 358 181 375 183 c 0
 392 186 406 195 419 205 c 0
 452 236 466 281 484 320 c 0
 495 347 498 377 499 406 c 0
 500 443 494 480 487 517 c 0
 480 550 472 581 459 612 c 0
 456 618 453 624 450 630 c 0
 434 664 412 695 387 723 c 0
 366 747 341 767 316 787 c 0
 297 801 277 815 258 829 c 0
 246 838 234 848 221 857 c 0
 217 860 213 863 209 866 c 1
-208 741 m 2
 -207 742 l 2
 -208 741 l 2
460 318 m 0
 462 321 457 311 455 308 c 0
 457 311 458 315 460 318 c 0
EndSplineSet
Validated: 549
EndChar
StartChar: glyph 24
Encoding: 24 88 24
Width: 446
Flags: W
HStem: 203 67<94.2502 196 249 291.381> 709 66<-60.0872 24.1094>
LayerCount: 2
Back
Fore
SplineSet
332 837 m 1
 297 769 l 1
 301 766 305 764 309 762 c 0
 318 757 327 751 335 744 c 0
 345 735 350 725 353 712 c 0
 356 693 352 675 347 657 c 0
 341 646 336 639 329 627 c 0
 312 600 294 574 275 548 c 1
 265 558 254 568 244 578 c 0
 216 607 187 636 160 666 c 0
 140 688 121 709 101 730 c 0
 100 731 l 1
 114 734 127 737 141 740 c 0
 155 743 148 742 162 745 c 1
 184 813 l 1
 170 810 177 812 162 808 c 0
 134 801 107 794 79 787 c 0
 50 781 21 774 -8 775 c 0
 -24 776 -39 779 -53 787 c 0
 -55 788 -62 792 -60 795 c 2
 -102 732 l 1
 -97 727 -91 723 -85 720 c 0
 -69 712 -51 710 -33 709 c 0
 -13 709 6 711 25 714 c 1
 22 709 l 1
 26 705 29 702 33 698 c 0
 44 688 55 677 66 667 c 0
 87 647 107 627 127 606 c 0
 155 577 183 547 212 519 c 0
 220 511 228 503 236 495 c 1
 213 464 191 435 168 404 c 0
 146 374 123 343 100 313 c 0
 84 292 69 272 53 251 c 0
 46 241 38 231 30 222 c 0
 25 219 21 215 17 212 c 0
 7 189 -7 168 -13 144 c 0
 -14 142 -2 135 3 136 c 0
 4 136 6 137 7 138 c 0
 7 139 7 141 8 142 c 1
 7 141 8 139 7 138 c 1
 8 139 8 140 8 140 c 0
 9 141 10 142 11 143 c 0
 15 148 20 153 24 158 c 0
 26 159 27 161 29 162 c 0
 47 175 68 182 89 189 c 0
 117 197 145 200 174 203 c 0
 199 205 224 206 249 205 c 0
 263 204 276 202 290 199 c 1
 319 266 l 1
 304 269 289 272 274 272 c 0
 248 273 222 272 196 270 c 0
 167 267 138 263 109 256 c 0
 104 255 99 253 94 252 c 1
 115 280 137 309 158 338 c 0
 186 375 212 413 240 450 c 0
 246 458 252 466 258 474 c 1
 276 457 294 439 312 422 c 0
 344 391 375 360 406 328 c 0
 431 302 456 276 481 250 c 0
 499 231 516 213 534 194 c 0
 546 181 559 169 571 156 c 0
 578 148 586 140 593 132 c 0
 594 133 l 1
 594 132 l 0
 593 132 l 1
 616 109 619 158 636 193 c 0
 637 194 634 195 633 196 c 0
 632 197 632 198 631 199 c 0
 620 213 609 228 599 243 c 0
 578 275 561 308 545 343 c 0
 529 379 515 415 502 452 c 0
 492 480 482 507 473 535 c 0
 470 545 467 555 465 565 c 1
 424 505 l 1
 427 495 429 487 433 477 c 0
 443 450 454 422 464 395 c 0
 471 376 479 358 487 339 c 1
 471 355 454 371 438 387 c 0
 407 418 376 449 344 480 c 0
 328 495 312 512 296 527 c 1
 304 538 312 549 319 560 c 0
 327 572 331 579 339 592 c 0
 342 597 346 601 348 606 c 0
 360 631 372 656 383 681 c 0
 388 691 389 698 392 708 c 0
 397 729 401 751 395 772 c 0
 390 787 381 799 369 809 c 0
 360 816 351 823 342 829 c 0
 338 831 335 834 332 837 c 1
593 132 m 1
 593 131 l 0
 593 132 l 1
7 138 m 1
 6 138 l 1
 7 138 l 1
340 638 m 1
 338 633 333 626 335 629 c 0
 336 632 339 635 340 638 c 1
EndSplineSet
Validated: 549
EndChar
StartChar: glyph 25
Encoding: 25 89 25
Width: 436
Flags: W
HStem: 173 69<223.376 265.719> 477 64<228.079 321 391 469.846>
VStem: -54 58<813 830.75> 480 44<551.191 635.934>
LayerCount: 2
Back
Fore
SplineSet
-26 884 m 1
 -54 813 l 2
 -51 813 -49 810 -48 808 c 0
 -41 797 -40 784 -38 771 c 0
 -35 745 -39 719 -44 694 c 0
 -51 661 -62 629 -73 598 c 0
 -78 585 -83 572 -88 559 c 1
 -94 557 -100 554 -106 550 c 0
 -108 549 -109 547 -111 546 c 0
 -112 545 -114 544 -115 543 c 0
 -116 543 l 2
 -128 469 l 2
 -128 470 l 0
 -126 472 -124 475 -122 477 c 0
 -114 484 -104 489 -94 493 c 0
 -76 501 -57 505 -38 508 c 0
 -8 512 22 511 52 509 c 0
 86 506 120 502 154 497 c 1
 161 483 169 470 176 456 c 0
 189 430 201 403 213 376 c 0
 226 346 238 315 250 285 c 0
 256 270 261 255 266 240 c 1
 260 241 254 242 248 242 c 0
 240 242 231 242 223 241 c 1
 209 170 l 2
 212 172 222 173 223 173 c 0
 239 174 255 172 271 169 c 0
 278 168 285 166 292 164 c 0
 293 161 295 157 296 154 c 2
 301 162 l 1
 307 160 312 157 318 155 c 0
 324 153 329 151 334 148 c 1
 366 214 l 1
 360 217 354 220 348 222 c 0
 342 224 337 226 331 228 c 1
 327 240 322 251 318 263 c 0
 308 290 299 317 288 343 c 0
 276 373 264 404 251 434 c 0
 243 451 235 469 227 486 c 1
 250 483 274 480 297 477 c 0
 328 473 360 471 391 472 c 0
 412 474 432 478 451 487 c 0
 454 489 458 490 461 492 c 0
 472 500 484 510 490 523 c 0
 523 592 517 569 524 605 c 0
 527 630 519 651 509 673 c 0
 495 700 477 724 457 746 c 0
 436 770 411 790 386 810 c 0
 365 826 344 842 322 858 c 0
 311 866 316 862 305 870 c 1
 272 806 l 1
 283 799 278 803 289 795 c 0
 311 780 333 765 354 749 c 0
 378 730 401 709 422 685 c 0
 441 663 458 640 470 614 c 0
 477 597 482 581 480 564 c 0
 479 563 478 563 477 562 c 0
 474 560 472 558 469 556 c 0
 453 545 433 540 414 538 c 0
 383 536 352 538 321 541 c 0
 281 545 241 550 201 556 c 0
 199 556 197 557 195 557 c 0
 194 559 192 562 191 564 c 0
 188 569 187 574 184 579 c 1
 172 560 l 1
 141 565 109 569 77 573 c 0
 46 576 16 579 -15 576 c 0
 -29 574 -43 572 -57 569 c 1
 -57 570 -57 569 -56 571 c 0
 -46 597 -36 624 -27 650 c 0
 -16 682 -5 714 1 747 c 0
 5 774 8 802 4 829 c 0
 1 844 -1 860 -11 873 c 0
 -15 878 -20 882 -26 884 c 1
209 170 m 2
 208 169 207 168 208 167 c 2
 209 170 l 2
-128 469 m 2
 -129 469 l 0
 -129 468 l 2
 -128 469 l 2
500 594 m 0
 500 594 496 588 495 585 c 0
 494 583 494 582 493 580 c 1
 495 584 497 589 499 594 c 0
 500 594 l 0
EndSplineSet
Validated: 549
EndChar
StartChar: glyph 26
Encoding: 26 90 26
Width: 438
Flags: W
HStem: 291 67<57 135.078> 506 1<7.00073 9> 507 4<9.84681 10> 508 68<33.0476 144.579> 728 63<54.4647 362.691>
VStem: 609 44<175.446 313.319>
LayerCount: 2
Back
Fore
SplineSet
662 846 m 0xac
 662 846 662 845 662 844 c 0
 661 844 l 0
 649 843 638 840 627 836 c 0
 626 835 l 0
 614 833 601 831 589 829 c 0
 569 826 548 823 528 820 c 0
 497 816 466 812 435 809 c 0
 390 804 346 798 301 795 c 0
 253 792 206 789 158 791 c 0
 128 793 97 795 68 806 c 0
 55 812 43 818 34 829 c 0
 31 833 28 837 26 841 c 2
 -13 777 l 1
 -9 773 -6 768 -2 764 c 0
 9 753 23 746 38 740 c 0
 69 729 102 729 134 728 c 0
 183 728 231 730 279 733 c 0
 324 736 368 740 413 744 c 0
 428 745 443 747 458 748 c 1
 453 745 447 741 442 738 c 0
 398 709 356 677 315 644 c 0
 277 613 240 580 203 547 c 1
 184 554 164 560 144 564 c 0
 113 570 83 575 52 576 c 0
 44 576 44 575 37 576 c 0
 36 576 34 577 33 577 c 0
 32 577 l 0
 33 576 36 576 36 575 c 0
 28 552 18 529 9 507 c 1
 14 507 20 508 27 508 c 0xdc
 58 510 89 505 119 500 c 0
 128 498 136 496 145 494 c 1
 126 477 107 460 89 443 c 0
 64 419 38 394 13 370 c 0
 7 364 2 358 -4 352 c 1
 -19 347 -33 341 -46 333 c 0
 -56 326 -66 320 -74 311 c 0
 -94 291 -113 261 -113 234 c 1
 -63 290 l 1
 -41 298 -60 292 -89 232 c 1
 -88 234 -87 235 -86 237 c 0
 -79 247 -71 255 -62 262 c 0
 -53 269 -43 274 -33 279 c 1
 -36 263 l 1
 -29 271 -22 278 -15 286 c 1
 2 291 21 292 39 291 c 0
 65 290 90 283 115 276 c 0
 146 267 175 253 204 238 c 0
 239 219 272 198 306 178 c 0
 339 158 373 138 408 120 c 0
 428 110 448 100 469 93 c 0
 482 89 484 89 497 86 c 0
 518 83 539 82 560 88 c 0
 564 89 567 91 571 92 c 0
 590 101 605 116 614 135 c 0
 625 160 635 184 646 209 c 1
 652 233 655 259 653 284 c 0
 653 289 652 294 651 299 c 0
 647 330 634 358 620 385 c 2
 613 397 l 1
 576 337 l 1
 582 325 l 2
 595 299 606 272 609 243 c 0
 610 219 610 196 604 173 c 0
 600 169 595 164 590 161 c 0
 587 159 584 158 581 157 c 0
 563 149 542 149 523 151 c 0
 511 153 509 153 497 157 c 0
 477 163 457 172 438 181 c 0
 403 199 369 219 336 239 c 0
 302 259 269 280 234 300 c 0
 205 316 174 330 142 340 c 0
 116 348 91 356 64 358 c 0
 62 358 59 358 57 358 c 1
 63 364 70 371 76 377 c 0
 110 409 144 441 178 473 c 0
 181 476 183 478 186 481 c 0
 199 476 212 470 224 464 c 0
 243 454 234 459 252 448 c 1
 282 511 l 1
 263 522 273 516 253 526 c 0
 250 528 246 529 243 531 c 1
 262 548 281 565 301 581 c 0
 341 614 382 646 426 674 c 0
 461 696 496 717 533 735 c 0
 556 746 580 758 605 766 c 0
 606 766 607 766 608 766 c 0
 617 767 626 769 635 771 c 0
 643 772 l 0
 666 844 690 842 662 844 c 1
 662 846 l 0xac
-89 232 m 1
 -90 231 -91 230 -91 229 c 0
 -91 228 -92 226 -92 227 c 0
 -91 229 -90 230 -89 232 c 1
9 507 m 1
 8 507 8 507 7 507 c 1xac
 7 507 8 506 9 506 c 1
 9 507 l 1
7 507 m 1
 7 508 l 0x9c
 6 509 9 511 10 511 c 2
 32 584 l 2
 28 583 24 581 20 581 c 0
 -4 520 -19 508 7 507 c 1
623 206 m 0
 623 206 620 197 618 194 c 0
 616 190 614 186 611 182 c 1
 615 190 619 198 623 206 c 0
EndSplineSet
Validated: 549
EndChar
